<mxfile host="app.diagrams.net" modified="2023-08-10T22:29:16.371Z" agent="Mozilla/5.0 (X11; Linux x86_64; rv:109.0) Gecko/20100101 Firefox/116.0" etag="l3_vAw_mnhStcNFGiSvQ" version="21.6.6" type="github">
  <diagram name="Seite-1" id="nGR0vnBB6WEjUMxLJ6vo">
    <mxGraphModel dx="1434" dy="762" grid="1" gridSize="10" guides="1" tooltips="1" connect="1" arrows="1" fold="1" page="1" pageScale="1" pageWidth="1169" pageHeight="827" math="0" shadow="0">
      <root>
        <mxCell id="0" />
        <mxCell id="1" parent="0" />
        <mxCell id="_KdDzlUZSZc6kCILJWBp-1" value="" style="group" vertex="1" connectable="0" parent="1">
          <mxGeometry x="525" y="160" width="120" height="60" as="geometry" />
        </mxCell>
        <mxCell id="_KdDzlUZSZc6kCILJWBp-2" value="" style="rounded=0;whiteSpace=wrap;html=1;" vertex="1" parent="_KdDzlUZSZc6kCILJWBp-1">
          <mxGeometry width="120" height="60" as="geometry" />
        </mxCell>
        <mxCell id="_KdDzlUZSZc6kCILJWBp-3" value="&lt;font style=&quot;font-size: 25px;&quot;&gt;Monitor&lt;/font&gt;" style="text;html=1;strokeColor=none;fillColor=none;align=center;verticalAlign=middle;whiteSpace=wrap;rounded=0;" vertex="1" parent="_KdDzlUZSZc6kCILJWBp-1">
          <mxGeometry x="38.823529411764696" y="14" width="42.35294117647059" height="30" as="geometry" />
        </mxCell>
        <mxCell id="_KdDzlUZSZc6kCILJWBp-4" value="" style="group" vertex="1" connectable="0" parent="1">
          <mxGeometry x="525" y="305" width="120" height="70" as="geometry" />
        </mxCell>
        <mxCell id="_KdDzlUZSZc6kCILJWBp-5" value="" style="rounded=0;whiteSpace=wrap;html=1;" vertex="1" parent="_KdDzlUZSZc6kCILJWBp-4">
          <mxGeometry width="120" height="70" as="geometry" />
        </mxCell>
        <mxCell id="_KdDzlUZSZc6kCILJWBp-6" value="&lt;div style=&quot;font-size: 25px;&quot;&gt;&lt;font style=&quot;font-size: 25px;&quot;&gt;enV5&lt;/font&gt;&lt;/div&gt;&lt;div style=&quot;font-size: 25px;&quot;&gt;&lt;font style=&quot;font-size: 25px;&quot;&gt;WristTwin&lt;/font&gt;&lt;br&gt;&lt;/div&gt;" style="text;html=1;strokeColor=none;fillColor=none;align=center;verticalAlign=middle;whiteSpace=wrap;rounded=0;" vertex="1" parent="_KdDzlUZSZc6kCILJWBp-4">
          <mxGeometry x="38.823529411764696" y="16.333333333333336" width="42.35294117647059" height="35" as="geometry" />
        </mxCell>
        <mxCell id="_KdDzlUZSZc6kCILJWBp-7" value="" style="group" vertex="1" connectable="0" parent="1">
          <mxGeometry x="240" y="305" width="120" height="70" as="geometry" />
        </mxCell>
        <mxCell id="_KdDzlUZSZc6kCILJWBp-8" value="" style="rounded=0;whiteSpace=wrap;html=1;" vertex="1" parent="_KdDzlUZSZc6kCILJWBp-7">
          <mxGeometry width="120" height="70" as="geometry" />
        </mxCell>
        <mxCell id="_KdDzlUZSZc6kCILJWBp-9" value="&lt;div style=&quot;font-size: 25px;&quot;&gt;&lt;font style=&quot;font-size: 25px;&quot;&gt;enV5&lt;/font&gt;&lt;/div&gt;&lt;div style=&quot;font-size: 25px;&quot;&gt;&lt;font style=&quot;font-size: 25px;&quot;&gt;Device&lt;/font&gt;&lt;br&gt;&lt;/div&gt;" style="text;html=1;strokeColor=none;fillColor=none;align=center;verticalAlign=middle;whiteSpace=wrap;rounded=0;" vertex="1" parent="_KdDzlUZSZc6kCILJWBp-7">
          <mxGeometry x="38.823529411764696" y="16.333333333333336" width="42.35294117647059" height="35" as="geometry" />
        </mxCell>
        <mxCell id="_KdDzlUZSZc6kCILJWBp-10" value="" style="group" vertex="1" connectable="0" parent="1">
          <mxGeometry x="800" y="305" width="120" height="70" as="geometry" />
        </mxCell>
        <mxCell id="_KdDzlUZSZc6kCILJWBp-11" value="" style="rounded=0;whiteSpace=wrap;html=1;" vertex="1" parent="_KdDzlUZSZc6kCILJWBp-10">
          <mxGeometry width="120" height="70" as="geometry" />
        </mxCell>
        <mxCell id="_KdDzlUZSZc6kCILJWBp-12" value="&lt;div style=&quot;font-size: 25px;&quot;&gt;&lt;font style=&quot;font-size: 25px;&quot;&gt;Wrist&lt;/font&gt;&lt;/div&gt;&lt;div style=&quot;font-size: 25px;&quot;&gt;Services&lt;br&gt;&lt;/div&gt;" style="text;html=1;strokeColor=none;fillColor=none;align=center;verticalAlign=middle;whiteSpace=wrap;rounded=0;" vertex="1" parent="_KdDzlUZSZc6kCILJWBp-10">
          <mxGeometry x="38.823529411764696" y="16.333333333333336" width="42.35294117647059" height="35" as="geometry" />
        </mxCell>
        <mxCell id="_KdDzlUZSZc6kCILJWBp-13" value="" style="endArrow=classic;startArrow=classic;html=1;rounded=0;entryX=0.5;entryY=1;entryDx=0;entryDy=0;exitX=0.5;exitY=0;exitDx=0;exitDy=0;" edge="1" parent="1" source="_KdDzlUZSZc6kCILJWBp-5" target="_KdDzlUZSZc6kCILJWBp-2">
          <mxGeometry width="50" height="50" relative="1" as="geometry">
            <mxPoint x="390" y="365" as="sourcePoint" />
            <mxPoint x="440" y="315" as="targetPoint" />
          </mxGeometry>
        </mxCell>
        <mxCell id="_KdDzlUZSZc6kCILJWBp-14" value="" style="endArrow=classic;startArrow=classic;html=1;rounded=0;entryX=1;entryY=0.5;entryDx=0;entryDy=0;exitX=0;exitY=0.5;exitDx=0;exitDy=0;" edge="1" parent="1" source="_KdDzlUZSZc6kCILJWBp-5" target="_KdDzlUZSZc6kCILJWBp-8">
          <mxGeometry width="50" height="50" relative="1" as="geometry">
            <mxPoint x="560" y="420" as="sourcePoint" />
            <mxPoint x="610" y="370" as="targetPoint" />
          </mxGeometry>
        </mxCell>
        <mxCell id="_KdDzlUZSZc6kCILJWBp-15" value="" style="endArrow=classic;startArrow=classic;html=1;rounded=0;entryX=0;entryY=0.5;entryDx=0;entryDy=0;exitX=1;exitY=0.5;exitDx=0;exitDy=0;" edge="1" parent="1" source="_KdDzlUZSZc6kCILJWBp-5" target="_KdDzlUZSZc6kCILJWBp-11">
          <mxGeometry width="50" height="50" relative="1" as="geometry">
            <mxPoint x="560" y="420" as="sourcePoint" />
            <mxPoint x="610" y="370" as="targetPoint" />
          </mxGeometry>
        </mxCell>
        <mxCell id="_KdDzlUZSZc6kCILJWBp-16" value="" style="rounded=0;whiteSpace=wrap;html=1;" vertex="1" parent="1">
          <mxGeometry x="800" y="375" width="120" height="45" as="geometry" />
        </mxCell>
        <mxCell id="_KdDzlUZSZc6kCILJWBp-17" value="&lt;div style=&quot;font-size: 17px;&quot;&gt;&lt;font style=&quot;font-size: 17px;&quot;&gt;External&lt;/font&gt;&lt;/div&gt;&lt;div style=&quot;font-size: 17px;&quot;&gt;&lt;font style=&quot;font-size: 17px;&quot;&gt;API&lt;/font&gt;&lt;br&gt;&lt;/div&gt;" style="text;html=1;strokeColor=none;fillColor=none;align=center;verticalAlign=middle;whiteSpace=wrap;rounded=0;" vertex="1" parent="1">
          <mxGeometry x="830" y="382.5" width="60" height="30" as="geometry" />
        </mxCell>
      </root>
    </mxGraphModel>
  </diagram>
</mxfile>
